HIERARCHY
ROOT Hips
{
	OFFSET 2.986477 97.943527 -2.248842
	CHANNELS 6 Xposition Yposition Zposition Xrotation Yrotation Zrotation
	JOINT Chest
	{
		OFFSET -5.887320 11.428246 4.570440
		CHANNELS 3 Xrotation Yrotation Zrotation
		JOINT Chest2
		{
			OFFSET -8.813785 16.351204 10.678104
			CHANNELS 3 Xrotation Yrotation Zrotation
			JOINT Chest3
			{
				OFFSET -3.448519 12.979218 6.516714
				CHANNELS 3 Xrotation Yrotation Zrotation
				JOINT Neck
				{
					OFFSET -2.333139 15.059021 8.148518
					CHANNELS 3 Xrotation Yrotation Zrotation
					JOINT Head
					{
						OFFSET 0.425640 9.118286 5.148153
						CHANNELS 3 Xrotation Yrotation Zrotation
						End Site
						{
							OFFSET 0.449228 9.151215 5.087360
						}
					}
				}
				JOINT LeftCollar
				{
					OFFSET 0.823561 9.788895 10.261757
					CHANNELS 3 Xrotation Yrotation Zrotation
					JOINT LeftUpArm
					{
						OFFSET 17.430763 -2.159760 0.057343
						CHANNELS 3 Xrotation Yrotation Zrotation
						JOINT LeftLowArm
						{
							OFFSET 26.368839 -21.063240 0.867353
							CHANNELS 3 Xrotation Yrotation Zrotation
							JOINT LeftHand
							{
								OFFSET -4.551418 -21.583359 20.356571
								CHANNELS 3 Xrotation Yrotation Zrotation
								End Site
								{
									OFFSET -0.994738 -4.717178 4.449039
								}
							}
						}
					}
				}
				JOINT RightCollar
				{
					OFFSET -6.768480 10.536652 6.706358
					CHANNELS 3 Xrotation Yrotation Zrotation
					JOINT RightUpArm
					{
						OFFSET -11.377996 5.448257 -12.221051
						CHANNELS 3 Xrotation Yrotation Zrotation
						JOINT RightLowArm
						{
							OFFSET -29.290184 -10.966827 -12.710171
							CHANNELS 3 Xrotation Yrotation Zrotation
							JOINT RightHand
							{
								OFFSET -18.079453 -18.991325 14.608814
								CHANNELS 3 Xrotation Yrotation Zrotation
								End Site
								{
									OFFSET -3.951469 -4.150719 3.192903
								}
							}
						}
					}
				}
			}
		}
	}
	JOINT LeftUpLeg
	{
		OFFSET 7.492269 1.245049 6.537194
		CHANNELS 3 Xrotation Yrotation Zrotation
		JOINT LeftLowLeg
		{
			OFFSET -8.237703 -41.316063 21.658993
			CHANNELS 3 Xrotation Yrotation Zrotation
			JOINT LeftFoot
			{
				OFFSET 2.447117 -37.910587 -23.608604
				CHANNELS 3 Xrotation Yrotation Zrotation
				JOINT LeftToe
				{
					OFFSET -3.397503 -18.282104 14.621255
					CHANNELS 3 Xrotation Yrotation Zrotation
					End Site
					{
						OFFSET -3.237132 -4.690927 22.958118
					}
				}
			}
		}
	}
	JOINT RightUpLeg
	{
		OFFSET -7.492187 -1.245216 -6.537263
		CHANNELS 3 Xrotation Yrotation Zrotation
		JOINT RightLowLeg
		{
			OFFSET 29.604252 -34.833412 -12.419127
			CHANNELS 3 Xrotation Yrotation Zrotation
			JOINT RightFoot
			{
				OFFSET 32.803635 -23.112057 -19.756887
				CHANNELS 3 Xrotation Yrotation Zrotation
				JOINT RightToe
				{
					OFFSET 13.803993 -18.392313 -5.543404
					CHANNELS 3 Xrotation Yrotation Zrotation
					End Site
					{
						OFFSET 0.033386 -23.648785 0.538532
					}
				}
			}
		}
	}
}
MOTION
Frames: 11
Frame Time: 0.033333
-2.017599 105.392487 -1.111724 -16.247196 39.681145 -11.466498 -9.365600 -6.628703 1.475739 -2.400515 -6.143604 2.566492 6.696986 0.404720 7.959808 -0.276176 -15.368124 5.273610 0.000001 -0.000002 -0.000000 1.670928 7.522430 -2.647859 16.756355 3.519809 -34.187918 21.934910 28.803734 26.352248 -0.000005 -0.000002 0.000003 -7.353419 -16.526843 19.700096 -0.386289 -20.614465 27.848607 19.794710 -23.473118 -4.888214 0.000002 -0.000003 -0.000002 35.827914 21.486631 32.510416 -48.728421 15.046026 -0.216529 2.583122 -40.903606 -20.109487 0.000001 0.000001 0.000001 -1.183614 5.853870 -15.800434 0.919389 -4.475953 -2.005860 -33.457726 13.283690 -17.807350 -0.000000 -0.000005 -0.000000 
-2.015645 105.393517 -1.111306 -16.192207 39.502864 -11.529848 -9.172831 -6.597605 1.588139 -2.298669 -6.010965 2.552020 6.247768 0.575017 8.068832 0.190951 -15.539833 5.423880 -0.000001 -0.000000 0.000000 1.707344 7.479434 -2.656721 16.896416 3.720978 -34.084058 21.926396 28.535385 26.162924 -0.000003 -0.000001 -0.000001 -7.469065 -16.964605 19.458447 -0.348138 -20.660660 27.737788 19.862064 -23.507436 -4.712295 -0.000004 0.000002 0.000001 35.840694 21.553649 32.543457 -48.700919 15.115965 -0.269777 3.144078 -40.674781 -19.584323 0.000001 0.000002 0.000001 -1.174558 5.834140 -15.837470 1.187913 -4.349213 -1.804122 -33.341104 13.642700 -17.771888 0.000001 -0.000005 0.000000 
-2.015874 105.390976 -1.112143 -15.538709 39.265292 -11.712225 -9.833856 -6.636014 1.108521 -1.790164 -5.945624 2.858316 5.983734 0.450933 7.960800 0.147654 -15.340936 5.370721 0.000002 -0.000000 0.000001 1.675208 7.880460 -2.676969 16.644158 3.543405 -34.084686 22.214932 28.936568 26.144421 -0.000009 -0.000002 0.000002 -7.344985 -16.317718 19.962010 -0.376809 -20.759231 27.703787 19.312114 -22.867991 -5.058622 -0.000002 -0.000003 -0.000003 35.534623 21.324933 32.423526 -48.603763 15.191845 -0.320549 3.175520 -40.433241 -19.417155 -0.000000 0.000002 0.000001 -1.610408 5.731175 -16.167177 1.217473 -4.357941 -1.868051 -33.307131 13.560331 -17.737269 0.000001 -0.000001 -0.000001 
-2.012705 105.385956 -1.105909 -15.772587 39.252308 -11.640316 -9.670325 -6.589988 1.178682 -1.749045 -5.998016 2.919456 5.833767 0.473341 7.789353 0.048246 -15.400157 5.427682 0.000000 -0.000001 0.000000 1.726281 8.039870 -2.497418 16.593844 3.328454 -34.167693 22.361397 28.953595 26.106390 -0.000005 -0.000004 0.000002 -7.257864 -16.536812 19.863869 -0.337064 -20.520202 27.921472 19.553698 -23.145889 -5.091007 -0.000002 0.000002 0.000001 35.909112 21.590873 32.547808 -48.689673 15.029944 -0.358981 2.488528 -40.612161 -20.026840 -0.000001 0.000001 0.000001 -1.229009 5.860620 -15.932086 1.181294 -4.225392 -1.617385 -34.054842 14.213554 -17.922983 0.000001 -0.000001 0.000000 
-2.010179 105.384201 -1.103898 -15.607493 39.231309 -11.585559 -9.768613 -6.568832 1.033225 -1.928245 -6.016371 2.812187 6.114113 0.413186 7.888331 0.129619 -15.381255 5.406427 0.000000 -0.000001 0.000000 1.996367 8.071053 -2.507620 16.350196 2.619055 -34.538481 21.784480 28.596996 26.773360 -0.000004 0.000002 -0.000002 -7.002687 -16.313005 20.210800 -0.239958 -20.128453 28.141645 19.501532 -22.814189 -5.515849 -0.000005 -0.000002 0.000001 35.821644 21.446007 32.410737 -48.733666 15.068967 -0.542486 3.250006 -40.286361 -19.382724 0.000000 0.000001 0.000000 -1.463299 5.875925 -16.119386 1.103671 -4.218090 -1.682577 -33.816137 13.877108 -17.942589 0.000000 -0.000003 -0.000001 
-2.004569 105.379166 -1.099405 -15.661637 39.342713 -11.596757 -9.576445 -6.591686 1.235394 -2.373783 -6.075951 2.571178 6.404250 0.417615 8.025592 0.020182 -15.394739 5.408274 0.000002 0.000000 -0.000000 1.853839 7.970474 -2.538037 16.453261 3.007272 -34.515169 22.025258 29.141596 26.576845 -0.000005 0.000006 -0.000002 -7.169760 -16.424390 20.051094 -0.236448 -20.548628 27.958970 19.425755 -23.096688 -5.275205 -0.000003 0.000000 -0.000002 35.895772 21.507813 32.464056 -48.647391 14.955932 -0.265224 2.228875 -40.580439 -20.191648 0.000001 0.000001 0.000001 -1.392218 5.853422 -16.057659 1.253079 -4.198315 -1.587132 -33.734571 13.801726 -17.904793 -0.000000 -0.000001 -0.000000 
-2.000041 105.373489 -1.091217 -15.905661 39.087506 -11.693246 -9.024883 -6.543112 1.604781 -2.733065 -6.051672 2.349718 6.462484 0.402861 8.068758 0.589707 -15.377273 5.637112 0.000001 0.000001 0.000001 1.672574 8.313118 -2.316946 16.553366 3.026415 -34.512796 22.037955 28.894849 26.395386 -0.000007 0.000000 0.000001 -7.151406 -16.415209 19.940560 -0.199155 -20.518691 28.061591 19.633251 -23.250352 -5.049146 -0.000000 -0.000002 -0.000004 36.080324 21.645576 32.549191 -48.833855 15.204587 -0.459332 3.359804 -40.232738 -19.205537 0.000001 0.000001 0.000002 -1.107032 5.910984 -15.874792 1.118788 -4.347819 -1.811627 -33.540341 13.729074 -17.799382 0.000000 -0.000001 -0.000001 
-1.996059 105.368027 -1.084769 -15.549288 39.071452 -11.785266 -9.179843 -6.577999 1.539178 -2.670733 -6.006430 2.374366 6.350703 0.464952 8.083985 0.170513 -15.459457 5.534433 -0.000001 0.000000 -0.000000 1.910878 7.600208 -2.627520 16.584920 3.124475 -34.475773 21.505102 28.380040 26.289646 -0.000005 0.000000 0.000002 -7.218673 -16.649366 19.917926 -0.246602 -20.391818 27.975886 19.429433 -23.032429 -5.104865 -0.000002 0.000003 0.000003 35.756395 21.399749 32.402366 -48.568659 15.021657 -0.313908 2.567710 -40.088050 -19.673414 0.000001 0.000001 0.000000 -1.419655 5.836762 -16.081276 1.243014 -4.226797 -1.639510 -33.749877 13.791330 -17.875988 0.000001 -0.000001 -0.000000 
-1.990213 105.364548 -1.079226 -15.542992 39.057870 -11.819706 -9.317182 -6.584205 1.442343 -2.842258 -6.033009 2.250806 6.719096 0.368904 8.235400 0.164590 -15.405299 5.441898 0.000000 0.000000 0.000001 2.003301 7.008738 -2.694169 16.603092 3.076952 -34.709628 21.227958 28.343444 26.575083 -0.000007 -0.000002 0.000003 -7.136453 -16.370119 19.963955 -0.209366 -20.591168 28.094702 19.539289 -23.103624 -5.147368 -0.000001 0.000000 0.000003 35.734146 21.388879 32.349565 -48.375276 14.838181 -0.036231 1.922843 -40.143265 -20.170829 0.000001 0.000001 0.000000 -1.434004 5.819541 -16.093710 1.331864 -4.190561 -1.617152 -33.727628 13.928709 -17.883713 0.000001 -0.000003 0.000001 
-1.980363 105.358421 -1.074146 -15.441861 39.217840 -11.774503 -9.338640 -6.627402 1.462923 -2.629040 -6.078707 2.399575 6.503946 0.150480 7.903516 0.225454 -15.284604 5.459680 0.000002 -0.000001 -0.000001 1.972485 7.506783 -2.655496 16.447840 2.743701 -34.722479 21.531480 28.751203 26.965187 -0.000005 -0.000003 0.000002 -7.077287 -16.100913 20.208243 -0.181871 -20.413844 28.119815 19.630823 -23.110544 -5.275299 -0.000000 0.000001 -0.000004 35.803753 21.409460 32.351741 -48.637323 14.952928 -0.210777 2.764446 -40.156270 -19.595946 0.000001 0.000002 0.000001 -1.545617 5.827204 -16.178828 1.388671 -4.138696 -1.402685 -33.627036 13.479335 -17.859644 0.000000 -0.000003 0.000000 
-1.970271 105.354828 -1.063703 -15.840834 39.188166 -11.702396 -9.024836 -6.542278 1.605290 -2.560175 -6.068566 2.451863 6.410520 0.237627 7.943914 0.254500 -15.378837 5.480334 -0.000001 0.000001 0.000001 1.997167 7.679431 -2.730640 16.381070 2.874873 -34.504719 21.656896 28.696142 26.490178 -0.000009 0.000002 0.000001 -7.201217 -16.482730 20.142050 -0.109438 -20.481487 27.822839 19.639097 -23.299056 -4.838512 -0.000004 -0.000002 0.000001 36.034442 21.570890 32.452186 -48.602588 15.024873 -0.267870 2.771569 -40.129154 -19.550315 0.000001 0.000000 -0.000001 -1.272784 5.892524 -16.043162 1.344381 -4.190750 -1.563074 -33.448584 13.407263 -17.841243 -0.000000 -0.000003 -0.000002 
